<mxfile type="github" version="12.7.4" etag="pgmuwvNNY3VRGwz054iS" agent="Mozilla/5.0 (Windows NT 10.0; Win64; x64) AppleWebKit/537.36 (KHTML, like Gecko) Chrome/70.0.3538.102 Safari/537.36 Edge/18.18362" modified="2020-02-25T12:39:42.209Z" host="www.draw.io">
  <diagram id="BEaYbOIXPYCLQaLnyWNn" name="Page-1">
    <mxGraphModel grid="1" shadow="0" math="0" pageHeight="1169" pageWidth="827" pageScale="1" page="1" fold="1" arrows="1" connect="1" tooltips="1" guides="1" gridSize="10" dy="1086" dx="2374">
      <root>
        <mxCell id="0" />
        <mxCell id="1" parent="0" />
        <mxCell id="ARJdTBUnzJ5h-dz1QOoY-1" value="" parent="1" vertex="1" style="rounded=1;whiteSpace=wrap;html=1;fillColor=#FFCCCC;strokeColor=#EA6B66;">
          <mxGeometry as="geometry" height="120" width="1000" y="40" x="80" />
        </mxCell>
        <mxCell id="ARJdTBUnzJ5h-dz1QOoY-2" value="&lt;b&gt;&lt;font style=&quot;font-size: 14px&quot;&gt;Actores&lt;/font&gt;&lt;/b&gt;" parent="1" vertex="1" style="text;html=1;strokeColor=none;fillColor=none;align=center;verticalAlign=middle;whiteSpace=wrap;rounded=0;">
          <mxGeometry as="geometry" height="20" width="40" y="40" x="560" />
        </mxCell>
        <mxCell id="ARJdTBUnzJ5h-dz1QOoY-3" value="Consumidor" parent="1" vertex="1" style="rounded=0;whiteSpace=wrap;html=1;strokeColor=#000000;fillColor=#FFFFFF;">
          <mxGeometry as="geometry" height="40" width="120" y="80" x="120" />
        </mxCell>
        <mxCell id="ARJdTBUnzJ5h-dz1QOoY-10" value="Proveedor" parent="1" vertex="1" style="rounded=0;whiteSpace=wrap;html=1;strokeColor=#000000;fillColor=#FFFFFF;">
          <mxGeometry as="geometry" height="40" width="120" y="80" x="280" />
        </mxCell>
        <mxCell id="ARJdTBUnzJ5h-dz1QOoY-11" value="Ente Transformador" parent="1" vertex="1" style="rounded=0;whiteSpace=wrap;html=1;strokeColor=#000000;fillColor=#FFFFFF;">
          <mxGeometry as="geometry" height="40" width="120" y="80" x="440" />
        </mxCell>
        <mxCell id="ARJdTBUnzJ5h-dz1QOoY-12" value="Transportador" parent="1" vertex="1" style="rounded=0;whiteSpace=wrap;html=1;strokeColor=#000000;fillColor=#FFFFFF;">
          <mxGeometry as="geometry" height="40" width="120" y="80" x="600" />
        </mxCell>
        <mxCell id="ARJdTBUnzJ5h-dz1QOoY-13" value="Ente Regulador" parent="1" vertex="1" style="rounded=0;whiteSpace=wrap;html=1;strokeColor=#000000;fillColor=#FFFFFF;">
          <mxGeometry as="geometry" height="40" width="120" y="80" x="760" />
        </mxCell>
        <mxCell id="ARJdTBUnzJ5h-dz1QOoY-15" value="Distibuidor" parent="1" vertex="1" style="rounded=0;whiteSpace=wrap;html=1;strokeColor=#000000;fillColor=#FFFFFF;">
          <mxGeometry as="geometry" height="40" width="120" y="80" x="920" />
        </mxCell>
        <mxCell id="ARJdTBUnzJ5h-dz1QOoY-16" value="" parent="1" vertex="1" style="rounded=1;whiteSpace=wrap;html=1;fillColor=#FFCE9F;strokeColor=#FFB570;">
          <mxGeometry as="geometry" height="160" width="1000" y="200" x="80" />
        </mxCell>
        <mxCell id="ARJdTBUnzJ5h-dz1QOoY-18" value="&lt;font style=&quot;font-size: 14px&quot;&gt;&lt;b&gt;Zona de Canales&lt;/b&gt;&lt;/font&gt;" parent="1" vertex="1" style="text;html=1;strokeColor=none;fillColor=none;align=center;verticalAlign=middle;whiteSpace=wrap;rounded=0;">
          <mxGeometry as="geometry" height="20" width="120" y="200" x="520" />
        </mxCell>
        <mxCell id="ARJdTBUnzJ5h-dz1QOoY-19" value="" parent="1" vertex="1" style="rounded=1;whiteSpace=wrap;html=1;fillColor=#A9C4EB;strokeColor=#7EA6E0;">
          <mxGeometry as="geometry" height="210" width="1000" y="400" x="80" />
        </mxCell>
        <mxCell id="ARJdTBUnzJ5h-dz1QOoY-20" value="&lt;font style=&quot;font-size: 14px&quot;&gt;&lt;b&gt;Zona de Servicios o Linea de Negocio&lt;/b&gt;&lt;/font&gt;" parent="1" vertex="1" style="text;html=1;strokeColor=none;fillColor=none;align=center;verticalAlign=middle;whiteSpace=wrap;rounded=0;">
          <mxGeometry as="geometry" height="20" width="260" y="400" x="450" />
        </mxCell>
        <mxCell id="SOlhE2sPtSD6XlK-ESlB-1" value="" parent="1" vertex="1" style="rounded=1;whiteSpace=wrap;html=1;fillColor=#E6E6E6;strokeColor=#B3B3B3;">
          <mxGeometry as="geometry" height="160" width="480" y="640" x="80" />
        </mxCell>
        <mxCell id="SOlhE2sPtSD6XlK-ESlB-3" value="" parent="1" vertex="1" style="rounded=1;whiteSpace=wrap;html=1;fillColor=#C3ABD0;strokeColor=#A680B8;">
          <mxGeometry as="geometry" height="160" width="480" y="640" x="600" />
        </mxCell>
        <mxCell id="SOlhE2sPtSD6XlK-ESlB-4" value="&lt;b&gt;&lt;font size=&quot;3&quot;&gt;Blockchain&lt;/font&gt;&lt;/b&gt;" parent="1" vertex="1" style="text;html=1;strokeColor=none;fillColor=none;align=center;verticalAlign=middle;whiteSpace=wrap;rounded=0;">
          <mxGeometry as="geometry" height="20" width="120" y="650" x="270" />
        </mxCell>
        <mxCell id="SOlhE2sPtSD6XlK-ESlB-5" value="&lt;font style=&quot;font-size: 14px&quot;&gt;&lt;b&gt;Z&lt;/b&gt;&lt;/font&gt;&lt;font style=&quot;font-size: 14px&quot;&gt;&lt;b&gt;ona Off-chain&lt;/b&gt;&lt;br&gt;&lt;/font&gt;" parent="1" vertex="1" style="text;html=1;strokeColor=none;fillColor=none;align=center;verticalAlign=middle;whiteSpace=wrap;rounded=0;">
          <mxGeometry as="geometry" height="20" width="120" y="640" x="780" />
        </mxCell>
      </root>
    </mxGraphModel>
  </diagram>
</mxfile>
